# File created by Blade
# Date/Time:  Thu Jan 22 15:33:01 2015
# Frame Rate: 120.000 fps
#------------------------------------------------------
:FULLY-SPECIFIED
:DEGREES
2287
root -17.959051 20.784407 8.341630 408.447753 -74.228555 -368.670332
RightUpLeg -100.367874 -26.313652 -2.990989
RightLeg 85.422206 -0.000000 -0.000000
RightFoot -20.440935 -14.071836 -7.343850
RightToeBase -97.440677 -0.000000 0.000000
LeftUpLeg -106.367434 9.769506 11.356046
LeftLeg 91.847523 -0.000000 -0.000000
LeftFoot -27.878487 -4.857881 -5.996165
LeftToeBase -3.353632 -0.000000 0.000000
Spine -15.195092 5.781398 -1.986451
RightShoulder -177.715634 -1.938207 150.760714
RightArm 170.984706 8.322719 107.670755
RightForeArm 9.341940 0.000000 72.697353
RightHand 16.805440 -0.000000 -11.845812
RightHandThumb1 -24.326973 -0.000000 -32.862282
LeftShoulder -7.251242 12.979177 20.523740
LeftArm 19.089357 9.220461 -71.199120
LeftForeArm 50.149751 -0.000000 95.548843
LeftHand -23.651619 -0.000000 -11.520315
LeftHandThumb1 -26.253704 0.000000 33.147579
Head 17.060983 60.354114 0.947680
2288
root -17.977478 21.183787 8.391733 409.330444 -73.788458 -369.518204
RightUpLeg -98.972451 -26.035259 -2.721854
RightLeg 83.561405 -0.000000 -0.000000
RightFoot -19.674709 -14.207906 -7.259900
RightToeBase -97.337855 -0.000000 0.000000
LeftUpLeg -105.298833 9.513353 11.483866
LeftLeg 90.089549 -0.000000 -0.000000
LeftFoot -27.350089 -4.761767 -5.745537
LeftToeBase -3.373553 -0.000000 0.000000
Spine -15.564548 6.097282 -1.883564
RightShoulder -177.366683 -1.394097 150.920312
RightArm 170.393625 8.143027 106.986198
RightForeArm 9.292901 -0.000000 72.757316
RightHand 16.741047 -0.000000 -11.775959
RightHandThumb1 -24.326973 -0.000000 -32.862282
LeftShoulder -7.370830 13.215622 20.521409
LeftArm 18.070246 8.798337 -71.875341
LeftForeArm 50.530606 0.000000 95.131411
LeftHand -23.891565 -0.000000 -11.399619
LeftHandThumb1 -26.253704 0.000000 33.147579
Head 17.839067 60.165070 1.405173
2289
root -17.990010 21.574330 8.443069 409.778084 -73.551576 -369.912164
RightUpLeg -97.720830 -25.720389 -2.675067
RightLeg 81.822655 -0.000000 -0.000000
RightFoot -18.653379 -14.448715 -7.543272
RightToeBase -97.235058 -0.000000 0.000000
LeftUpLeg -104.198709 9.279027 11.424194
LeftLeg 88.315018 -0.000000 -0.000000
LeftFoot -26.842417 -4.649245 -5.531697
LeftToeBase -3.333061 -0.000000 0.000000
Spine -15.960994 6.425016 -2.027216
RightShoulder -177.072534 -0.848427 151.058587
RightArm 169.853306 7.968844 106.286872
RightForeArm 9.325284 -0.000000 72.836006
RightHand 16.779535 -0.000000 -11.688727
RightHandThumb1 -24.326973 -0.000000 -32.862282
LeftShoulder -7.497225 13.455889 20.593486
LeftArm 17.008514 8.287688 -72.555113
LeftForeArm 50.635985 0.000000 94.743050
LeftHand -23.945437 -0.000000 -11.078815
LeftHandThumb1 -26.253704 0.000000 33.147579
Head 18.575839 59.998546 1.877841
2290
root -17.998891 21.958338 8.496433 410.103175 -73.392137 -370.193480
RightUpLeg -96.526487 -25.346876 -2.737627
RightLeg 80.195887 -0.000000 -0.000000
RightFoot -17.729065 -14.760853 -7.873083
RightToeBase -96.908061 -0.000000 0.000000
LeftUpLeg -103.071826 9.039713 11.290923
LeftLeg 86.508256 -0.000000 -0.000000
LeftFoot -26.384279 -4.446728 -5.495467
LeftToeBase -3.145566 -0.000000 0.000000
Spine -16.347013 6.787042 -2.228905
RightShoulder -176.750589 -0.310247 151.156918
RightArm 169.391299 7.917870 105.608839
RightForeArm 9.375577 -0.000000 72.965909
RightHand 16.652744 -0.000000 -11.710685
RightHandThumb1 -24.326973 -0.000000 -32.862282
LeftShoulder -7.600548 13.575169 20.695809
LeftArm 15.843022 7.662217 -73.260757
LeftForeArm 50.622094 -0.000000 94.367574
LeftHand -24.085480 -0.000000 -10.887384
LeftHandThumb1 -26.253704 0.000000 33.147579
Head 19.264750 59.858273 2.256251
2291
root -18.005761 22.334443 8.546121 410.439438 -73.304410 -370.503838
RightUpLeg -95.368259 -24.880750 -2.932732
RightLeg 78.734744 -0.000000 -0.000000
RightFoot -16.638874 -15.345938 -9.296689
RightToeBase -96.301027 -0.000000 0.000000
LeftUpLeg -101.930667 8.856619 11.221791
LeftLeg 84.735355 -0.000000 -0.000000
LeftFoot -25.819274 -4.280910 -5.316291
LeftToeBase -3.156425 -0.000000 0.000000
Spine -16.739701 7.174062 -2.481605
RightShoulder -176.454814 0.146883 151.239002
RightArm 168.924882 7.915506 104.923305
RightForeArm 9.432374 -0.000000 73.099855
RightHand 16.770988 0.000000 -11.756724
RightHandThumb1 -24.326973 -0.000000 -32.862282
LeftShoulder -7.728454 13.727497 20.816115
LeftArm 14.724032 6.965937 -73.897621
LeftForeArm 50.310450 -0.000000 94.014561
LeftHand -24.192472 -0.000000 -10.574894
LeftHandThumb1 -26.253704 0.000000 33.147579
Head 19.973986 59.770379 2.692723
